# xmcd
#
# Track frame offsets: 
#        150
#        6059
#        26445
#        45373
#        65583
#        88368
#        107024
#        118222
#        136055
#        140213
#        156627
#        167498
#        185063
#
# Disc length: 2552 seconds
#
# Revision: 0
# Processed by: cddbd v1.5.2PL0 Copyright (c) Steve Scherf et al.
# Submitted via: ExactAudioCopy v1.0b3
#
DISCID=b709f60d
DTITLE=Rita Chiarelli - Music from the Big House Soundtrack
DYEAR=2011
DGENRE=Blues
TTITLE0=Rita's Journey
TTITLE1=These Four Walls
TTITLE2=Mississippi Boy
TTITLE3=Don't Let Him Catch You (with Your Work Undone)
TTITLE4=Mercy Blues
TTITLE5=Harvest
TTITLE6=Rest My Bones (Prison Yard Rehearsal)
TTITLE7=Glory Glory
TTITLE8=Rain on Me (Prison Yard Rehearsal)
TTITLE9=Rain On Me
TTITLE10=I Love You Still
TTITLE11=Midnight Special
TTITLE12=Convicted
EXTD=
EXTT0=
EXTT1=
EXTT2=
EXTT3=
EXTT4=
EXTT5=
EXTT6=
EXTT7=
EXTT8=
EXTT9=
EXTT10=
EXTT11=
EXTT12=
PLAYORDER=
